<?xml version="1.0" encoding="utf-8"?>
<!-- Generator: Adobe Illustrator 16.0.0, SVG Export Plug-In . SVG Version: 6.00 Build 0)  -->
<!DOCTYPE svg PUBLIC "-//W3C//DTD SVG 1.1//EN" "http://www.w3.org/Graphics/SVG/1.1/DTD/svg11.dtd">
<svg version="1.1" id="图层_1" xmlns="http://www.w3.org/2000/svg" xmlns:xlink="http://www.w3.org/1999/xlink" x="0px" y="0px"
	 width="26px" height="62px" viewBox="0 0 26 62" enable-background="new 0 0 26 62" xml:space="preserve">
<g>
	<path opacity="0.3" fill="#231815" enable-background="new    " d="M12.816,29.313c2.75,0,4.977,0.78,4.977,1.742
		s-2.229,1.742-4.977,1.742c-2.749,0-4.978-0.779-4.978-1.742S10.067,29.313,12.816,29.313z"/>
	<path fill="#45BA7F" d="M24.803,12.129c0-6.405-5.367-11.6-11.988-11.6c-6.619,0-11.986,5.194-11.986,11.6
		c0,0.852,0.094,1.68,0.274,2.479L1.094,14.61c2.479,10.787,11.724,16.444,11.724,16.444s9.243-5.927,11.687-16.305l-0.009-0.001
		C24.697,13.906,24.803,13.029,24.803,12.129z"/>
	<g>
		<g>
			<path fill="#FFFFFF" d="M16.911,10.444h-0.146l-4.05-0.004l-0.466,2.008h2.5l-1.725,8l4.609-8.706l0.05-0.09
				c0-0.001,0-0.001,0-0.002c0.045-0.104,0.069-0.218,0.069-0.338C17.753,10.854,17.382,10.479,16.911,10.444z M13.75,13.448h-2.5
				l1.726-8l-4.61,8.706l-0.048,0.091c0,0.001,0,0.001,0,0.001c-0.046,0.104-0.071,0.219-0.071,0.338
				c0,0.459,0.371,0.834,0.842,0.869h0.145l4.051,0.003L13.75,13.448z"/>
		</g>
	</g>
</g>
</svg>
