<?xml version="1.0" encoding="utf-8"?>
<!-- Generator: Adobe Illustrator 16.0.0, SVG Export Plug-In . SVG Version: 6.00 Build 0)  -->
<!DOCTYPE svg PUBLIC "-//W3C//DTD SVG 1.1//EN" "http://www.w3.org/Graphics/SVG/1.1/DTD/svg11.dtd">
<svg version="1.1" id="图层_1" xmlns="http://www.w3.org/2000/svg" xmlns:xlink="http://www.w3.org/1999/xlink" x="0px" y="0px"
	 width="26px" height="62px" viewBox="0 0 26 62" enable-background="new 0 0 26 62" xml:space="preserve">
<g>
	<g opacity="0.3">
		<path fill="#35A4DE" d="M12.816,26.805c4.417,0,8,1.903,8,4.25s-3.582,4.25-8,4.25c-4.418,0-8-1.902-8-4.25
			S8.398,26.805,12.816,26.805 M12.816,25.805c-5.047,0-9,2.306-9,5.25c0,2.944,3.953,5.25,9,5.25c5.045,0,9-2.306,9-5.25
			C21.814,28.111,17.861,25.805,12.816,25.805L12.816,25.805z"/>
	</g>
	<g opacity="0.6">
		<path fill="#35A4DE" d="M12.816,29.305c2.761,0,5,0.784,5,1.75s-2.238,1.75-5,1.75c-2.762,0-5-0.783-5-1.75
			S10.055,29.305,12.816,29.305 M12.816,28.305c-2.986,0-6,0.85-6,2.75c0,1.899,3.014,2.75,6,2.75s6-0.851,6-2.75
			C18.814,29.155,15.802,28.305,12.816,28.305L12.816,28.305z"/>
	</g>
	<path opacity="0.6" fill="#3194C8" enable-background="new    " d="M12.816,30.305c1.381,0,2.5,0.336,2.5,0.75
		c0,0.414-1.119,0.75-2.5,0.75c-1.38,0-2.5-0.336-2.5-0.75C10.316,30.641,11.436,30.305,12.816,30.305z"/>
	<path fill="#35A4DE" d="M24.803,12.129c0-6.405-5.367-11.6-11.988-11.6c-6.619,0-11.986,5.194-11.986,11.6
		c0,0.852,0.094,1.68,0.274,2.479L1.094,14.61c2.479,10.787,11.724,16.444,11.724,16.444s9.243-5.927,11.687-16.305l-0.009-0.001
		C24.697,13.906,24.803,13.029,24.803,12.129z"/>
	<g>
		<g>
			<path fill="#FFFFFF" d="M15.578,6.088c-0.217-0.216-0.596-0.188-0.846,0.064L12.84,8.046L11.552,6.76
				c-0.154-0.153-0.367-0.191-0.475-0.083c-0.108,0.107-0.071,0.319,0.083,0.474l1.289,1.287l-3.137,3.14L8.03,10.291
				c-0.153-0.154-0.365-0.19-0.473-0.082c-0.108,0.109-0.071,0.322,0.082,0.477l1.281,1.286l-1.89,1.894
				c-0.251,0.252-0.28,0.631-0.065,0.847c0.216,0.216,0.595,0.188,0.846-0.064l7.703-7.713C15.766,6.683,15.794,6.304,15.578,6.088z
				 M18.51,11.026l-2.154-3.38l-7.829,7.841l3.374,2.157c0.42,0.42,1.124,0.396,1.573-0.054l4.982-4.989
				C18.904,12.151,18.93,11.446,18.51,11.026z M15.577,15.487l1.565,1.564l0.774-0.772l-1.567-1.564L15.577,15.487z"/>
		</g>
	</g>
</g>
</svg>
